<?xml version="1.0" standalone="no"?><!DOCTYPE svg PUBLIC "-//W3C//DTD SVG 1.1//EN" "http://www.w3.org/Graphics/SVG/1.1/DTD/svg11.dtd"><svg t="1553310297196" class="icon" style="" viewBox="0 0 1025 1024" version="1.1" xmlns="http://www.w3.org/2000/svg" p-id="2183" xmlns:xlink="http://www.w3.org/1999/xlink" width="200.1953125" height="200"><defs><style type="text/css"></style></defs><path d="M469.241525 137.703361 98.37183 527.146336c-93.973219 98.68002-92.76401 256.884637 2.832067 354.156814l3.698274 3.763802c95.713824 97.390948 251.888077 98.186507 348.461964 1.854256l488.62777-487.41037c77.219383-77.026893 78.824836-203.233046 3.624554-281.953445l-17.872942 17.074312-17.872942 17.074312 4.126258 4.319772 17.872942-17.074312 17.872942-17.074312c-75.82178-79.370566-198.536484-78.552482-273.528917 1.867567l-463.226199 496.749228c-37.300142 40.000128-35.153055 102.567712 4.864479 139.885261l11.217688 10.461036c39.959173 37.262259 102.585118 35.092646 139.817684-4.834787L729.170173 379.649511c9.310189-9.983906 8.764458-25.624778-1.220471-34.934967s-25.624778-8.764458-34.934967 1.219447L332.734062 732.288928c-18.608092 19.954501-49.952293 21.040843-69.94775 2.394868l-11.217688-10.461036c-20.040507-18.687955-21.113539-49.972771-2.42456-70.014302l463.226199-496.749228c55.617451-59.642344 145.451101-60.241317 201.627594-1.434463 22.765066 23.830931 58.511975-10.316669 35.745884-34.147599l-4.126258-4.319772c-22.765066-23.830931-58.511975 10.316669-35.745884 34.147599 56.617787 59.267602 55.403459 154.755147-2.791111 212.80535l-488.62777 487.41037c-77.13952 76.94703-201.812917 76.312221-278.289984-1.505111l-3.698274-3.763802c-76.901979-78.249412-77.878766-206.039516-2.291455-285.413154l370.869695-389.442974c9.414626-9.885613 9.031692-25.531604-0.85392-34.94623S478.656151 127.817748 469.241525 137.703361L469.241525 137.703361z" p-id="2184"></path></svg>